<svg width="24" height="24" viewBox="0 0 24 24" fill="none" xmlns="http://www.w3.org/2000/svg">
<g clip-path="url(#paint0_diamond_6008_1415_clip_path)" data-figma-skip-parse="true"><g transform="matrix(0.00700007 0.00849943 -0.00849924 0.00699992 13.9999 14.0006)"><rect x="0" y="0" width="1022.72" height="1022.74" fill="url(#paint0_diamond_6008_1415)" opacity="1" shape-rendering="crispEdges"/><rect x="0" y="0" width="1022.72" height="1022.74" transform="scale(1 -1)" fill="url(#paint0_diamond_6008_1415)" opacity="1" shape-rendering="crispEdges"/><rect x="0" y="0" width="1022.72" height="1022.74" transform="scale(-1 1)" fill="url(#paint0_diamond_6008_1415)" opacity="1" shape-rendering="crispEdges"/><rect x="0" y="0" width="1022.72" height="1022.74" transform="scale(-1)" fill="url(#paint0_diamond_6008_1415)" opacity="1" shape-rendering="crispEdges"/></g></g><path d="M14.725 8.15615C16.275 7.23815 17.051 6.77915 17.62 7.10515C18.19 7.43015 18.176 8.32515 18.149 10.1152L18.142 10.5782C18.134 11.0872 18.13 11.3412 18.225 11.5642C18.32 11.7882 18.502 11.9552 18.868 12.2902L19.2 12.5952C20.486 13.7732 21.13 14.3612 20.978 15.0232C20.828 15.6842 19.983 15.9802 18.294 16.5712L17.857 16.7242C17.377 16.8932 17.137 16.9772 16.953 17.1452C16.769 17.3142 16.662 17.5482 16.447 18.0152L16.251 18.4412C15.495 20.0872 15.117 20.9112 14.455 20.9942C13.793 21.0772 13.284 20.3642 12.267 18.9402L12.004 18.5722C11.715 18.1672 11.571 17.9652 11.362 17.8452C11.154 17.7262 10.905 17.7032 10.406 17.6582L9.95295 17.6162C8.19995 17.4562 7.32295 17.3762 7.06495 16.7662C6.80595 16.1562 7.33595 15.4192 8.39695 13.9482L8.67195 13.5672C8.97295 13.1492 9.12395 12.9402 9.17895 12.6972C9.23395 12.4552 9.18795 12.2072 9.09495 11.7112L9.00995 11.2602C8.68195 9.51415 8.51795 8.64215 9.02095 8.18215C9.52395 7.72215 10.36 7.97915 12.032 8.49315L12.465 8.62715C12.94 8.77315 13.178 8.84615 13.42 8.81515C13.663 8.78515 13.883 8.65515 14.324 8.39415L14.725 8.15615Z" data-figma-gradient-fill="{&#34;type&#34;:&#34;GRADIENT_DIAMOND&#34;,&#34;stops&#34;:[{&#34;color&#34;:{&#34;r&#34;:0.15110947191715240,&#34;g&#34;:0.42786368727684021,&#34;b&#34;:0.87307697534561157,&#34;a&#34;:1.0},&#34;position&#34;:0.0},{&#34;color&#34;:{&#34;r&#34;:0.054901961237192154,&#34;g&#34;:0.64705884456634521,&#34;b&#34;:0.91372549533843994,&#34;a&#34;:1.0},&#34;position&#34;:1.0}],&#34;stopsVar&#34;:[{&#34;color&#34;:{&#34;r&#34;:0.15110947191715240,&#34;g&#34;:0.42786368727684021,&#34;b&#34;:0.87307697534561157,&#34;a&#34;:1.0},&#34;position&#34;:0.0},{&#34;color&#34;:{&#34;r&#34;:0.054901961237192154,&#34;g&#34;:0.64705884456634521,&#34;b&#34;:0.91372549533843994,&#34;a&#34;:1.0},&#34;position&#34;:1.0}],&#34;transform&#34;:{&#34;m00&#34;:14.000140190124512,&#34;m01&#34;:-16.998485565185547,&#34;m02&#34;:15.499102592468262,&#34;m10&#34;:16.998857498168945,&#34;m11&#34;:13.999834060668945,&#34;m12&#34;:-1.4987744092941284},&#34;opacity&#34;:1.0,&#34;blendMode&#34;:&#34;NORMAL&#34;,&#34;visible&#34;:true}"/>
<path fill-rule="evenodd" clip-rule="evenodd" d="M8.96983 1.96983C9.11045 1.82938 9.30108 1.75049 9.49983 1.75049C9.69858 1.75049 9.8892 1.82938 10.0298 1.96983L12.0298 3.96983C12.1623 4.112 12.2344 4.30005 12.231 4.49435C12.2276 4.68865 12.1489 4.87404 12.0114 5.01145C11.874 5.14886 11.6887 5.22758 11.4944 5.231C11.3 5.23443 11.112 5.16231 10.9698 5.02983L8.96983 3.02983C8.82938 2.8892 8.75049 2.69858 8.75049 2.49983C8.75049 2.30108 8.82938 2.11045 8.96983 1.96983ZM3.46983 3.46983C3.61045 3.32938 3.80108 3.25049 3.99983 3.25049C4.19858 3.25049 4.3892 3.32938 4.52983 3.46983L7.02983 5.96983C7.16231 6.112 7.23443 6.30005 7.231 6.49435C7.22758 6.68865 7.14886 6.87404 7.01145 7.01145C6.87404 7.14886 6.68865 7.22758 6.49435 7.231C6.30005 7.23443 6.112 7.16231 5.96983 7.02983L3.46983 4.52983C3.32938 4.3892 3.25049 4.19858 3.25049 3.99983C3.25049 3.80108 3.32938 3.61045 3.46983 3.46983ZM12.4698 5.46983C12.6105 5.32938 12.8011 5.25049 12.9998 5.25049C13.1986 5.25049 13.3892 5.32938 13.5298 5.46983L14.0298 5.96983C14.1623 6.112 14.2344 6.30005 14.231 6.49435C14.2276 6.68865 14.1489 6.87404 14.0114 7.01145C13.874 7.14886 13.6887 7.22758 13.4944 7.231C13.3 7.23443 13.112 7.16231 12.9698 7.02983L12.4698 6.52983C12.3294 6.3892 12.2505 6.19858 12.2505 5.99983C12.2505 5.80108 12.3294 5.61045 12.4698 5.46983ZM1.46983 7.46983C1.61045 7.32938 1.80108 7.25049 1.99983 7.25049C2.19858 7.25049 2.3892 7.32938 2.52983 7.46983L3.02983 7.96983C3.16231 8.112 3.23443 8.30005 3.231 8.49435C3.22758 8.68865 3.14886 8.87404 3.01145 9.01145C2.87404 9.14886 2.68865 9.22758 2.49435 9.231C2.30005 9.23443 2.112 9.16231 1.96983 9.02983L1.46983 8.52983C1.32938 8.3892 1.25049 8.19858 1.25049 7.99983C1.25049 7.80108 1.32938 7.61045 1.46983 7.46983ZM3.96983 9.96983C4.11045 9.82938 4.30108 9.75049 4.49983 9.75049C4.69858 9.75049 4.8892 9.82938 5.02983 9.96983L6.52983 11.4698C6.60352 11.5385 6.66262 11.6213 6.70361 11.7133C6.7446 11.8053 6.76664 11.9046 6.76842 12.0053C6.7702 12.106 6.75167 12.206 6.71395 12.2994C6.67623 12.3928 6.62009 12.4776 6.54887 12.5489C6.47765 12.6201 6.39281 12.6762 6.29943 12.714C6.20604 12.7517 6.10601 12.7702 6.00531 12.7684C5.9046 12.7666 5.80529 12.7446 5.71329 12.7036C5.62129 12.6626 5.53849 12.6035 5.46983 12.5298L3.96983 11.0298C3.82938 10.8892 3.75049 10.6986 3.75049 10.4998C3.75049 10.3011 3.82938 10.1105 3.96983 9.96983Z" fill="url(#paint1_linear_6008_1415)" fill-opacity="0.952941"/>
<defs>
<clipPath id="paint0_diamond_6008_1415_clip_path"><path d="M14.725 8.15615C16.275 7.23815 17.051 6.77915 17.62 7.10515C18.19 7.43015 18.176 8.32515 18.149 10.1152L18.142 10.5782C18.134 11.0872 18.13 11.3412 18.225 11.5642C18.32 11.7882 18.502 11.9552 18.868 12.2902L19.2 12.5952C20.486 13.7732 21.13 14.3612 20.978 15.0232C20.828 15.6842 19.983 15.9802 18.294 16.5712L17.857 16.7242C17.377 16.8932 17.137 16.9772 16.953 17.1452C16.769 17.3142 16.662 17.5482 16.447 18.0152L16.251 18.4412C15.495 20.0872 15.117 20.9112 14.455 20.9942C13.793 21.0772 13.284 20.3642 12.267 18.9402L12.004 18.5722C11.715 18.1672 11.571 17.9652 11.362 17.8452C11.154 17.7262 10.905 17.7032 10.406 17.6582L9.95295 17.6162C8.19995 17.4562 7.32295 17.3762 7.06495 16.7662C6.80595 16.1562 7.33595 15.4192 8.39695 13.9482L8.67195 13.5672C8.97295 13.1492 9.12395 12.9402 9.17895 12.6972C9.23395 12.4552 9.18795 12.2072 9.09495 11.7112L9.00995 11.2602C8.68195 9.51415 8.51795 8.64215 9.02095 8.18215C9.52395 7.72215 10.36 7.97915 12.032 8.49315L12.465 8.62715C12.94 8.77315 13.178 8.84615 13.42 8.81515C13.663 8.78515 13.883 8.65515 14.324 8.39415L14.725 8.15615Z"/></clipPath><linearGradient id="paint0_diamond_6008_1415" x1="0" y1="0" x2="500" y2="500" gradientUnits="userSpaceOnUse">
<stop stop-color="#276DDF"/>
<stop offset="1" stop-color="#0EA5E9"/>
</linearGradient>
<linearGradient id="paint1_linear_6008_1415" x1="0.499999" y1="-0.499999" x2="17.5" y2="17" gradientUnits="userSpaceOnUse">
<stop stop-color="#33ADFF"/>
<stop offset="1" stop-color="#00EA5E" stop-opacity="0.584314"/>
</linearGradient>
</defs>
</svg>
