<svg width="256" height="256" viewBox="0 0 256 256" fill="none" xmlns="http://www.w3.org/2000/svg">
<path d="M38.7765 127.102C43.6237 90.603 77.1414 64.9436 113.64 69.7908C150.138 74.6381 175.796 108.156 170.949 144.655C166.102 181.154 132.585 206.812 96.0868 201.965C59.5883 197.118 33.9295 163.601 38.7765 127.102ZM112.411 79.0435C109.988 97.2927 122.817 114.052 141.066 116.476C150.378 117.712 159.301 114.976 166.131 109.576C157.322 89.1108 138.469 73.571 114.949 69.9804C113.707 72.7987 112.837 75.8372 112.411 79.0435Z" fill="#1860C7"/>
<path d="M112.411 79.0431C112.837 75.8367 113.707 72.7984 114.948 69.9799C138.469 73.5705 157.322 89.1103 166.13 109.575C159.301 114.976 150.378 117.712 141.065 116.475C122.816 114.051 109.987 97.2924 112.411 79.0431Z" fill="#0D652D"/>
<path d="M114.737 70.4698C120.427 56.9646 134.615 48.366 149.843 50.3883C168.092 52.812 180.921 69.5711 178.497 87.8205C177.08 98.4931 170.759 107.31 162.105 112.308C163.512 111.495 164.857 110.581 166.13 109.574C157.321 89.1096 138.469 73.5701 114.948 69.9797C114.877 70.1423 114.807 70.3058 114.737 70.4698ZM162.105 112.308C162.087 112.319 162.068 112.329 162.05 112.339C162.068 112.329 162.087 112.319 162.105 112.308ZM160.674 113.088C161.139 112.849 161.598 112.6 162.05 112.339C161.598 112.6 161.139 112.849 160.674 113.088ZM160.674 113.088C160.653 113.099 160.632 113.11 160.612 113.121C160.632 113.11 160.653 113.099 160.674 113.088ZM157.637 114.463C158.652 114.064 159.645 113.615 160.612 113.121C159.645 113.615 158.653 114.064 157.637 114.463ZM156.965 114.719C156.92 114.736 156.874 114.753 156.828 114.77C156.874 114.753 156.92 114.736 156.965 114.719ZM156.235 114.979C156.165 115.003 156.095 115.027 156.025 115.051C156.095 115.027 156.165 115.003 156.235 114.979ZM155.419 115.247C155.371 115.262 155.323 115.277 155.274 115.292C155.323 115.277 155.371 115.262 155.419 115.247ZM154.615 115.488C154.572 115.501 154.53 115.514 154.487 115.526C154.53 115.514 154.572 115.501 154.615 115.488ZM153.061 115.893C152.991 115.909 152.921 115.927 152.85 115.943C152.921 115.927 152.991 115.909 153.061 115.893ZM152.287 116.064C152.205 116.081 152.123 116.099 152.041 116.116C152.123 116.099 152.205 116.081 152.287 116.064ZM151.441 116.23C151.374 116.243 151.307 116.256 151.24 116.268C151.307 116.256 151.374 116.243 151.441 116.23ZM150.641 116.366C150.56 116.379 150.48 116.392 150.399 116.404C150.48 116.392 150.56 116.379 150.641 116.366ZM149.76 116.493C149.707 116.5 149.654 116.507 149.601 116.514C149.654 116.507 149.707 116.5 149.76 116.493ZM148.984 116.584C148.901 116.593 148.818 116.602 148.734 116.61C148.818 116.602 148.901 116.593 148.984 116.584ZM148.127 116.663C148.058 116.669 147.988 116.676 147.918 116.681C147.988 116.676 148.058 116.669 148.127 116.663ZM147.335 116.717C147.241 116.722 147.146 116.728 147.051 116.732C147.146 116.728 147.241 116.722 147.335 116.717ZM146.586 116.749C146.457 116.753 146.327 116.759 146.197 116.761C146.327 116.759 146.457 116.753 146.586 116.749ZM145.8 116.766C145.647 116.767 145.494 116.77 145.34 116.769C145.494 116.77 145.647 116.767 145.8 116.766ZM144.98 116.763C144.818 116.761 144.656 116.759 144.494 116.754C144.656 116.759 144.818 116.761 144.98 116.763ZM144.093 116.738C143.944 116.732 143.794 116.726 143.644 116.718C143.794 116.726 143.944 116.732 144.093 116.738ZM141.065 116.475L141.066 116.475C141.506 116.534 141.946 116.582 142.384 116.622C141.945 116.582 141.506 116.533 141.065 116.475ZM122.747 107.839L122.747 107.838L122.747 107.839ZM119.988 104.941C120.332 105.348 120.687 105.747 121.05 106.138C120.687 105.747 120.332 105.348 119.988 104.941ZM118.508 103.054L118.508 103.053L118.508 103.054ZM117.165 101.065L117.166 101.064L117.165 101.065ZM115.967 98.9815C116.217 99.4541 116.478 99.9203 116.75 100.38C116.614 100.15 116.48 99.9186 116.35 99.6854L115.967 98.9815ZM112.463 88.2559C112.582 89.0693 112.731 89.8745 112.908 90.6704C112.79 90.14 112.684 89.6054 112.592 89.067L112.463 88.2559ZM114.7 70.5594C114.712 70.5295 114.725 70.4997 114.737 70.4698C114.725 70.4997 114.712 70.5295 114.7 70.5594ZM114.095 72.1154C114.284 71.5899 114.486 71.0712 114.7 70.5594C114.486 71.0712 114.284 71.59 114.095 72.1154ZM112.17 81.5978C112.202 81.0329 112.248 80.4659 112.309 79.8972C112.248 80.4659 112.202 81.0329 112.17 81.5978ZM114.081 72.153C114.086 72.1404 114.091 72.128 114.095 72.1154C114.091 72.128 114.086 72.1404 114.081 72.153ZM113.782 73.0303C113.825 72.8973 113.868 72.7643 113.913 72.6321C113.868 72.7643 113.825 72.8973 113.782 73.0303ZM113.638 73.4783C113.685 73.3284 113.733 73.1792 113.782 73.0303C113.733 73.1792 113.685 73.3285 113.638 73.4783ZM113.504 73.9176C113.548 73.7706 113.593 73.6243 113.638 73.4783C113.593 73.6243 113.548 73.7706 113.504 73.9176ZM113.287 74.6867C113.33 74.5275 113.374 74.3687 113.419 74.2107C113.374 74.3688 113.33 74.5275 113.287 74.6867ZM113.168 75.1339C113.186 75.0659 113.202 74.9978 113.22 74.93C113.202 74.9978 113.186 75.0659 113.168 75.1339ZM112.874 76.3834C112.914 76.1979 112.955 76.0128 112.998 75.8285C112.955 76.0128 112.914 76.1978 112.874 76.3834ZM112.687 77.3083C112.733 77.0647 112.781 76.8221 112.831 76.5807C112.781 76.8222 112.733 77.0647 112.687 77.3083ZM112.554 78.0817C112.587 77.8787 112.622 77.6764 112.658 77.4749C112.622 77.6764 112.587 77.8787 112.554 78.0817ZM112.411 79.0428C112.445 78.7853 112.484 78.529 112.524 78.2737C112.484 78.5292 112.446 78.7862 112.412 79.0439L112.411 79.0428ZM154.487 115.526C154.251 115.592 154.014 115.655 153.776 115.717C154.014 115.655 154.251 115.592 154.487 115.526ZM143.644 116.718C143.458 116.708 143.273 116.694 143.087 116.68C143.273 116.694 143.458 116.708 143.644 116.718ZM113.054 75.5965C113.091 75.4419 113.129 75.2876 113.168 75.1339C113.129 75.2876 113.091 75.4418 113.054 75.5965Z" fill="#34A853"/>
<rect x="188.667" y="52.6664" width="37.3333" height="148.001" fill="#FBBC04"/>
</svg>
