<svg width="256" height="256" viewBox="0 0 256 256" fill="none" xmlns="http://www.w3.org/2000/svg">
<path d="M60.5824 126.826C64.2178 99.4519 89.3557 80.208 116.73 83.8434C123.281 84.7135 129.365 86.8185 134.783 89.888C129.637 86.9722 123.889 84.9276 117.711 83.9845C116.78 86.0985 116.127 88.3775 115.808 90.7825C113.99 104.469 123.612 117.038 137.299 118.856C144.283 119.784 150.974 117.731 156.096 113.682C154.865 110.821 153.371 108.089 151.643 105.519C158.214 115.288 161.384 127.402 159.712 139.991C156.077 167.365 130.939 186.608 103.565 182.973C76.1909 179.338 56.947 154.2 60.5824 126.826ZM151.571 105.414C151.595 105.449 151.619 105.484 151.643 105.519C151.619 105.484 151.595 105.449 151.571 105.414ZM150.304 103.625C150.74 104.212 151.162 104.808 151.571 105.414C151.162 104.808 150.74 104.212 150.304 103.625ZM150.196 103.481C150.232 103.529 150.269 103.577 150.304 103.625C150.269 103.577 150.232 103.529 150.196 103.481ZM147.942 100.68C148.727 101.587 149.479 102.521 150.196 103.481C149.479 102.521 148.727 101.587 147.942 100.68ZM147.162 99.7991C147.218 99.8617 147.276 99.9234 147.333 99.9863C147.276 99.9234 147.218 99.8617 147.162 99.7991ZM146.37 98.9443C146.637 99.2259 146.901 99.5114 147.162 99.7991C146.901 99.5114 146.637 99.2259 146.37 98.9443ZM146.149 98.713C146.223 98.7898 146.296 98.867 146.37 98.9443C146.296 98.867 146.223 98.7898 146.149 98.713ZM145.497 98.0501C145.578 98.1305 145.659 98.2101 145.738 98.291C145.659 98.2101 145.578 98.1305 145.497 98.0501ZM144.702 97.2706C144.97 97.5276 145.235 97.7874 145.497 98.0501C145.235 97.7874 144.97 97.5276 144.702 97.2706ZM144.511 97.0887C144.575 97.1491 144.638 97.2099 144.702 97.2706C144.638 97.2099 144.575 97.1491 144.511 97.0887ZM142.967 95.6857C143.492 96.143 144.007 96.6107 144.511 97.0887C144.007 96.6106 143.492 96.143 142.967 95.6857ZM142.734 95.4834C142.812 95.5505 142.89 95.6181 142.967 95.6857C142.89 95.6181 142.812 95.5505 142.734 95.4834ZM140.851 93.9408C140.961 94.0264 141.071 94.1118 141.18 94.1982C141.071 94.1118 140.961 94.0264 140.851 93.9408ZM140.294 93.5111C140.481 93.6529 140.666 93.7966 140.851 93.9408C140.666 93.7966 140.481 93.6529 140.294 93.5111ZM139.712 93.0773C139.907 93.2205 140.101 93.3652 140.294 93.5111C140.101 93.3652 139.907 93.2205 139.712 93.0773ZM138.863 92.468C139.011 92.5722 139.159 92.6772 139.306 92.783C139.159 92.6772 139.011 92.5722 138.863 92.468ZM138.276 92.0619C138.472 92.1961 138.668 92.3312 138.863 92.468C138.668 92.3312 138.472 92.1961 138.276 92.0619ZM137.78 91.7282C137.946 91.8384 138.111 91.9498 138.276 92.0619C138.111 91.9498 137.946 91.8384 137.78 91.7282ZM136.812 91.1021C136.997 91.2188 137.181 91.3363 137.364 91.4552C137.181 91.3363 136.997 91.2188 136.812 91.1021ZM136.241 90.7465C136.432 90.8637 136.622 90.9824 136.812 91.1021C136.622 90.9824 136.432 90.8637 136.241 90.7465ZM135.721 90.4321C135.895 90.5358 136.068 90.6408 136.241 90.7465C136.068 90.6408 135.895 90.5358 135.721 90.4321ZM134.783 89.888C134.961 89.9886 135.138 90.0902 135.314 90.1929C135.138 90.0902 134.961 89.9886 134.783 89.888ZM147.333 99.9863C147.494 100.166 147.654 100.347 147.812 100.529C147.654 100.347 147.494 100.166 147.333 99.9863ZM141.18 94.1982C141.337 94.323 141.494 94.4483 141.65 94.5749C141.494 94.4483 141.337 94.323 141.18 94.1982Z" fill="#1860C7"/>
<path d="M115.808 90.7825C116.127 88.3776 116.78 86.0985 117.711 83.9846C135.352 86.6774 149.49 98.3333 156.096 113.682C150.974 117.732 144.283 119.784 137.299 118.856C123.612 117.038 113.99 104.469 115.808 90.7825Z" fill="#0D652D"/>
<path d="M155.609 114.058C155.773 113.935 155.935 113.809 156.096 113.682C149.49 98.3333 135.352 86.6783 117.711 83.9856C122.078 74.0683 132.599 67.793 143.882 69.2913C157.569 71.109 167.191 83.678 165.373 97.3649C164.454 104.288 160.783 110.169 155.609 114.058ZM155.139 114.402C155.123 114.414 155.106 114.426 155.089 114.438C155.106 114.426 155.123 114.414 155.139 114.402ZM154.135 115.086C154.458 114.877 154.776 114.661 155.089 114.438C154.776 114.661 154.458 114.877 154.135 115.086ZM154.135 115.086C154.111 115.101 154.086 115.116 154.062 115.131C154.086 115.116 154.111 115.101 154.135 115.086ZM153.611 115.414C153.592 115.426 153.573 115.437 153.553 115.449C153.573 115.437 153.592 115.426 153.611 115.414ZM152.552 116.027C152.533 116.037 152.513 116.047 152.494 116.058C152.513 116.047 152.533 116.037 152.552 116.027ZM151.488 116.574C151.452 116.592 151.416 116.61 151.379 116.627C151.416 116.61 151.452 116.592 151.488 116.574ZM150.345 117.094C150.694 116.946 151.038 116.79 151.379 116.627C151.038 116.79 150.694 116.946 150.345 117.094ZM150.345 117.094C150.322 117.104 150.299 117.115 150.276 117.125C150.299 117.115 150.322 117.104 150.345 117.094ZM149.808 117.316C149.766 117.332 149.724 117.349 149.682 117.365C149.724 117.349 149.766 117.332 149.808 117.316ZM149.3 117.511C149.219 117.541 149.139 117.571 149.058 117.6C149.139 117.571 149.219 117.541 149.3 117.511ZM148.718 117.72C148.651 117.743 148.584 117.766 148.517 117.788C148.584 117.766 148.651 117.743 148.718 117.72ZM148.071 117.933C148.029 117.946 147.988 117.96 147.946 117.973C147.988 117.96 148.029 117.946 148.071 117.933ZM147.469 118.114C147.431 118.125 147.394 118.136 147.356 118.147C147.394 118.136 147.431 118.125 147.469 118.114ZM146.955 118.255C146.873 118.276 146.792 118.298 146.711 118.319C146.792 118.298 146.873 118.276 146.955 118.255ZM146.34 118.409C146.274 118.424 146.209 118.44 146.143 118.455C146.209 118.44 146.274 118.424 146.34 118.409ZM145.618 118.569C145.431 118.607 145.243 118.643 145.054 118.677C145.243 118.643 145.431 118.607 145.618 118.569ZM145.054 118.677C145.013 118.685 144.972 118.693 144.931 118.7C144.972 118.693 145.013 118.685 145.054 118.677ZM144.463 118.777C144.411 118.785 144.36 118.794 144.309 118.802C144.36 118.794 144.411 118.785 144.463 118.777ZM143.856 118.864C143.798 118.872 143.74 118.88 143.682 118.887C143.74 118.88 143.798 118.872 143.856 118.864ZM143.342 118.926C143.232 118.938 143.121 118.951 143.011 118.962C143.121 118.951 143.232 118.938 143.342 118.926ZM142.808 118.979C142.674 118.991 142.54 119.003 142.405 119.013C142.54 119.003 142.674 118.991 142.808 118.979ZM142.114 119.031C142 119.037 141.887 119.045 141.773 119.05C141.887 119.045 142 119.037 142.114 119.031ZM141.487 119.061C141.374 119.064 141.261 119.068 141.148 119.071C141.261 119.068 141.374 119.064 141.487 119.061ZM140.277 119.073C140.151 119.072 140.024 119.07 139.898 119.066C140.024 119.07 140.151 119.072 140.277 119.073ZM137.299 118.856C137.736 118.914 138.171 118.96 138.605 118.995C138.171 118.96 137.736 118.914 137.299 118.856ZM117.502 84.4731C117.524 84.4192 117.547 84.3654 117.57 84.3117C117.547 84.3654 117.524 84.4192 117.502 84.4731ZM117.36 84.8236C117.407 84.7063 117.454 84.5894 117.502 84.4731C117.454 84.5894 117.407 84.7063 117.36 84.8236ZM117.203 85.2254C117.254 85.0908 117.307 84.9571 117.36 84.8236C117.307 84.9571 117.254 85.0908 117.203 85.2254ZM117.029 85.7048C117.064 85.6057 117.1 85.5071 117.136 85.4087C117.1 85.5071 117.064 85.6057 117.029 85.7048ZM116.847 86.2352C116.877 86.1444 116.908 86.0539 116.939 85.9636C116.908 86.0539 116.877 86.1444 116.847 86.2352ZM116.718 86.6416C116.76 86.5056 116.803 86.3702 116.847 86.2352C116.803 86.3701 116.76 86.5056 116.718 86.6416ZM116.63 86.9324C116.659 86.8352 116.688 86.7382 116.718 86.6416C116.688 86.7382 116.659 86.8352 116.63 86.9324ZM116.469 87.4991C116.498 87.3896 116.528 87.2802 116.56 87.1713C116.528 87.2802 116.498 87.3896 116.469 87.4991ZM116.289 88.1984C116.329 88.0321 116.371 87.8666 116.414 87.7017C116.371 87.8666 116.329 88.0321 116.289 88.1984ZM116.15 88.8113C116.182 88.6615 116.216 88.5124 116.25 88.3637C116.216 88.5124 116.182 88.6615 116.15 88.8113ZM116.06 89.2467C116.081 89.1416 116.102 89.0366 116.124 88.932C116.102 89.0366 116.081 89.1415 116.06 89.2467ZM115.925 90.0001C115.943 89.8919 115.961 89.7841 115.981 89.6765C115.961 89.7841 115.943 89.8919 115.925 90.0001ZM115.808 90.7825C115.832 90.5994 115.858 90.417 115.887 90.2354C115.858 90.417 115.832 90.5994 115.808 90.7825ZM153.553 115.449C153.393 115.546 153.232 115.642 153.07 115.735C153.232 115.642 153.393 115.546 153.553 115.449ZM152.494 116.058C152.331 116.146 152.167 116.233 152.002 116.318C152.167 116.233 152.331 116.146 152.494 116.058ZM146.143 118.455C145.969 118.495 145.794 118.533 145.618 118.569C145.794 118.533 145.969 118.495 146.143 118.455ZM140.859 119.074C140.74 119.075 140.621 119.077 140.502 119.077C140.621 119.077 140.74 119.075 140.859 119.074ZM138.605 118.995C138.816 119.012 139.026 119.027 139.236 119.039C139.026 119.027 138.816 119.012 138.605 118.995ZM116.017 89.4705C116.031 89.3957 116.046 89.3212 116.06 89.2467C116.046 89.3212 116.031 89.3957 116.017 89.4705Z" fill="#34A853"/>
<rect x="173" y="71" width="28" height="111" fill="#FBBC04"/>
</svg>
