<svg width="966" height="240" viewBox="0 0 966 240" fill="none" xmlns="http://www.w3.org/2000/svg">
<path d="M21.7765 127.102C26.6237 90.6031 60.1414 64.9437 96.6399 69.7909C133.138 74.6382 158.796 108.156 153.949 144.655C149.102 181.154 115.585 206.812 79.0868 201.965C42.5883 197.118 16.9295 163.601 21.7765 127.102ZM95.4111 79.0436C92.9878 97.2928 105.817 114.052 124.066 116.476C133.378 117.712 142.301 114.976 149.131 109.576C140.322 89.1109 121.469 73.5711 97.9486 69.9804C96.7074 72.7988 95.8369 75.8373 95.4111 79.0436Z" fill="#1860C7"/>
<path d="M95.4108 79.0433C95.8367 75.8368 96.7071 72.7986 97.9483 69.9801C121.469 73.5707 140.322 89.1104 149.13 109.576C142.301 114.976 133.378 117.712 124.065 116.475C105.816 114.052 92.9873 97.2926 95.4108 79.0433Z" fill="#0D652D"/>
<path d="M97.7371 70.4698C103.427 56.9645 117.615 48.366 132.843 50.3883C151.092 52.812 163.921 69.5711 161.497 87.8204C160.08 98.493 153.758 107.31 145.104 112.308C146.512 111.495 147.857 110.581 149.13 109.574C140.321 89.1095 121.468 73.5701 97.948 69.9796C97.8764 70.1422 97.8063 70.3057 97.7371 70.4698ZM145.104 112.308C145.086 112.319 145.068 112.329 145.05 112.339C145.068 112.329 145.086 112.319 145.104 112.308ZM143.674 113.088C144.139 112.849 144.598 112.6 145.05 112.339C144.597 112.6 144.139 112.849 143.674 113.088ZM143.674 113.088C143.653 113.099 143.632 113.11 143.611 113.121C143.632 113.11 143.653 113.099 143.674 113.088ZM140.637 114.463C141.652 114.064 142.645 113.615 143.611 113.121C142.645 113.615 141.652 114.064 140.637 114.463ZM139.965 114.719C139.919 114.736 139.874 114.753 139.828 114.77C139.874 114.753 139.919 114.736 139.965 114.719ZM139.235 114.979C139.165 115.003 139.095 115.027 139.024 115.051C139.095 115.027 139.165 115.003 139.235 114.979ZM138.419 115.247C138.371 115.262 138.323 115.277 138.274 115.292C138.323 115.277 138.371 115.262 138.419 115.247ZM137.615 115.488C137.572 115.501 137.529 115.514 137.487 115.526C137.529 115.514 137.572 115.501 137.615 115.488ZM136.061 115.893C135.99 115.909 135.92 115.927 135.85 115.943C135.92 115.927 135.99 115.909 136.061 115.893ZM135.287 116.064C135.205 116.081 135.123 116.099 135.041 116.116C135.123 116.099 135.205 116.081 135.287 116.064ZM134.441 116.23C134.374 116.243 134.307 116.256 134.24 116.268C134.307 116.256 134.374 116.243 134.441 116.23ZM133.64 116.366C133.56 116.379 133.479 116.392 133.399 116.404C133.479 116.392 133.56 116.379 133.64 116.366ZM132.76 116.493C132.707 116.5 132.654 116.507 132.601 116.514C132.654 116.507 132.707 116.5 132.76 116.493ZM131.984 116.584C131.901 116.593 131.818 116.602 131.734 116.61C131.818 116.602 131.901 116.593 131.984 116.584ZM131.127 116.663C131.057 116.669 130.988 116.676 130.918 116.681C130.988 116.676 131.057 116.669 131.127 116.663ZM130.335 116.717C130.24 116.722 130.146 116.728 130.051 116.732C130.146 116.728 130.24 116.722 130.335 116.717ZM129.586 116.749C129.456 116.753 129.327 116.759 129.197 116.761C129.327 116.759 129.456 116.753 129.586 116.749ZM128.799 116.766C128.646 116.767 128.493 116.77 128.34 116.769C128.493 116.77 128.646 116.767 128.799 116.766ZM127.98 116.763C127.818 116.761 127.656 116.759 127.494 116.754C127.656 116.759 127.818 116.761 127.98 116.763ZM127.093 116.738C126.943 116.732 126.793 116.726 126.643 116.718C126.793 116.726 126.943 116.732 127.093 116.738ZM124.065 116.475L124.066 116.475C124.506 116.533 124.945 116.582 125.383 116.622C124.945 116.582 124.505 116.533 124.065 116.475ZM105.747 107.839L105.747 107.838L105.747 107.839ZM102.988 104.941C103.332 105.348 103.686 105.747 104.05 106.138C103.686 105.747 103.332 105.348 102.988 104.941ZM101.508 103.053L101.508 103.053L101.508 103.053ZM100.165 101.065L100.165 101.064L100.165 101.065ZM98.967 98.9814C99.2168 99.4541 99.4779 99.9203 99.7497 100.38C99.6137 100.15 99.4799 99.9186 99.3494 99.6853L98.967 98.9814ZM95.4628 88.2558C95.5813 89.0693 95.7305 89.8745 95.9076 90.6704C95.7895 90.1399 95.6836 89.6054 95.5915 89.067L95.4628 88.2558ZM97.6996 70.5594C97.7121 70.5295 97.7246 70.4996 97.7371 70.4698C97.7246 70.4996 97.7121 70.5295 97.6996 70.5594ZM97.095 72.1154C97.284 71.5899 97.4858 71.0712 97.6996 70.5594C97.4857 71.0712 97.2842 71.59 97.095 72.1154ZM95.1697 81.5978C95.2015 81.0328 95.248 80.4659 95.3089 79.8972C95.248 80.4659 95.2015 81.0328 95.1697 81.5978ZM97.0811 72.153C97.0856 72.1404 97.0905 72.128 97.095 72.1154C97.0905 72.128 97.0856 72.1404 97.0811 72.153ZM96.7814 73.0303C96.8249 72.8973 96.8679 72.7643 96.9131 72.6321C96.868 72.7643 96.8249 72.8973 96.7814 73.0303ZM96.6382 73.4783C96.6848 73.3284 96.7327 73.1792 96.7814 73.0303C96.7326 73.1791 96.6849 73.3284 96.6382 73.4783ZM96.504 73.9175C96.5476 73.7706 96.5926 73.6243 96.6382 73.4783C96.5927 73.6243 96.5475 73.7706 96.504 73.9175ZM96.2866 74.6866C96.3297 74.5275 96.3734 74.3687 96.4187 74.2106C96.3734 74.3687 96.3296 74.5274 96.2866 74.6866ZM96.1681 75.1339C96.1855 75.0659 96.202 74.9977 96.2198 74.9299C96.202 74.9977 96.1854 75.0659 96.1681 75.1339ZM95.874 76.3834C95.914 76.1978 95.955 76.0128 95.998 75.8285C95.955 76.0128 95.914 76.1978 95.874 76.3834ZM95.6872 77.3083C95.7326 77.0646 95.7806 76.8221 95.8311 76.5806C95.7807 76.8221 95.7325 77.0646 95.6872 77.3083ZM95.5539 78.0816C95.5869 77.8786 95.6217 77.6764 95.6582 77.4748C95.6217 77.6764 95.5868 77.8786 95.5539 78.0816ZM95.4105 79.0428C95.4447 78.7852 95.4826 78.5289 95.5226 78.2735C95.4826 78.5291 95.4446 78.786 95.4104 79.0438L95.4105 79.0428ZM137.487 115.526C137.251 115.592 137.013 115.655 136.776 115.717C137.013 115.655 137.251 115.592 137.487 115.526ZM126.643 116.718C126.458 116.708 126.273 116.694 126.087 116.68C126.273 116.694 126.458 116.708 126.643 116.718ZM96.0534 75.5965C96.0907 75.4418 96.1287 75.2876 96.1681 75.1339C96.1288 75.2876 96.0906 75.4418 96.0534 75.5965Z" fill="#34A853"/>
<rect x="171.667" y="52.6665" width="37.3333" height="148.001" fill="#FBBC04"/>
<path d="M316.952 185.58C304.625 185.58 294.162 182.857 285.562 177.41C276.962 171.963 270.397 164.395 265.868 154.706C261.396 145.017 259.16 133.808 259.16 121.08C259.16 108.352 261.396 97.1433 265.868 87.454C270.397 77.7647 276.962 70.1967 285.562 64.75C294.162 59.3033 304.625 56.58 316.952 56.58C329.336 56.58 339.828 59.3033 348.428 64.75C357.028 70.1967 363.564 77.7647 368.036 87.454C372.508 97.1433 374.744 108.352 374.744 121.08C374.744 133.808 372.508 145.017 368.036 154.706C363.564 164.395 357.028 171.963 348.428 177.41C339.828 182.857 329.336 185.58 316.952 185.58ZM316.952 170.96C326.183 171.017 333.865 168.953 340 164.768C346.192 160.525 350.807 154.649 353.846 147.138C356.942 139.627 358.49 130.941 358.49 121.08C358.49 111.161 356.942 102.475 353.846 95.022C350.807 87.5687 346.192 81.7493 340 77.564C333.865 73.3787 326.183 71.2573 316.952 71.2C307.721 71.1427 300.039 73.2067 293.904 77.392C287.827 81.5773 283.24 87.4253 280.144 94.936C277.048 102.447 275.471 111.161 275.414 121.08C275.357 130.941 276.876 139.599 279.972 147.052C283.068 154.505 287.683 160.353 293.818 164.596C300.01 168.781 307.721 170.903 316.952 170.96ZM458.151 183V136.474C458.151 132.059 457.749 127.817 456.947 123.746C456.201 119.675 454.854 116.035 452.905 112.824C451.013 109.556 448.433 106.976 445.165 105.084C441.954 103.192 437.883 102.246 432.953 102.246C429.111 102.246 425.614 102.905 422.461 104.224C419.365 105.485 416.699 107.435 414.463 110.072C412.227 112.709 410.478 116.035 409.217 120.048C408.013 124.004 407.411 128.677 407.411 134.066L397.349 130.97C397.349 121.969 398.954 114.257 402.165 107.836C405.433 101.357 409.991 96.398 415.839 92.958C421.744 89.4607 428.681 87.712 436.651 87.712C442.671 87.712 447.802 88.658 452.045 90.55C456.287 92.442 459.813 94.9647 462.623 98.118C465.432 101.214 467.639 104.711 469.245 108.61C470.85 112.451 471.968 116.379 472.599 120.392C473.287 124.348 473.631 128.103 473.631 131.658V183H458.151ZM391.931 183V90.12H405.691V114.974H407.411V183H391.931ZM535.397 185.58C526.281 185.58 518.312 183.573 511.489 179.56C504.724 175.489 499.449 169.842 495.665 162.618C491.881 155.337 489.989 146.851 489.989 137.162C489.989 127.014 491.853 118.242 495.579 110.846C499.306 103.393 504.495 97.6593 511.145 93.646C517.853 89.5753 525.708 87.54 534.709 87.54C544.055 87.54 551.995 89.69 558.531 93.99C565.125 98.29 570.055 104.425 573.323 112.394C576.649 120.363 578.082 129.852 577.623 140.86H562.143V135.356C561.971 123.947 559.649 115.433 555.177 109.814C550.705 104.138 544.055 101.3 535.225 101.3C525.765 101.3 518.57 104.339 513.639 110.416C508.709 116.493 506.243 125.208 506.243 136.56C506.243 147.511 508.709 155.996 513.639 162.016C518.57 168.036 525.593 171.046 534.709 171.046C540.844 171.046 546.176 169.641 550.705 166.832C555.235 164.023 558.789 159.981 561.369 154.706L576.075 159.78C572.463 167.979 567.017 174.343 559.735 178.872C552.511 183.344 544.399 185.58 535.397 185.58ZM501.083 140.86V128.562H569.711V140.86H501.083ZM618.43 183V73.694H576.204V59.16H675.964V73.694H633.738V183H618.43ZM716.132 185.58C707.016 185.58 699.046 183.573 692.224 179.56C685.458 175.489 680.184 169.842 676.4 162.618C672.616 155.337 670.724 146.851 670.724 137.162C670.724 127.014 672.587 118.242 676.314 110.846C680.04 103.393 685.229 97.6593 691.88 93.646C698.588 89.5753 706.442 87.54 715.444 87.54C724.789 87.54 732.73 89.69 739.266 93.99C745.859 98.29 750.79 104.425 754.058 112.394C757.383 120.363 758.816 129.852 758.358 140.86H742.878V135.356C742.706 123.947 740.384 115.433 735.912 109.814C731.44 104.138 724.789 101.3 715.96 101.3C706.5 101.3 699.304 104.339 694.374 110.416C689.443 116.493 686.978 125.208 686.978 136.56C686.978 147.511 689.443 155.996 694.374 162.016C699.304 168.036 706.328 171.046 715.444 171.046C721.578 171.046 726.91 169.641 731.44 166.832C735.969 164.023 739.524 159.981 742.104 154.706L756.81 159.78C753.198 167.979 747.751 174.343 740.47 178.872C733.246 183.344 725.133 185.58 716.132 185.58ZM681.818 140.86V128.562H750.446V140.86H681.818ZM816.635 185.58C807.232 185.58 799.234 183.487 792.641 179.302C786.105 175.059 781.117 169.24 777.677 161.844C774.237 154.448 772.46 146.02 772.345 136.56C772.46 126.871 774.266 118.357 777.763 111.018C781.318 103.622 786.392 97.86 792.985 93.732C799.578 89.604 807.519 87.54 816.807 87.54C826.611 87.54 835.039 89.948 842.091 94.764C849.2 99.58 853.959 106.173 856.367 114.544L841.231 119.102C839.282 113.713 836.1 109.527 831.685 106.546C827.328 103.565 822.311 102.074 816.635 102.074C810.271 102.074 805.025 103.565 800.897 106.546C796.769 109.47 793.702 113.541 791.695 118.758C789.688 123.918 788.656 129.852 788.599 136.56C788.714 146.88 791.093 155.222 795.737 161.586C800.438 167.893 807.404 171.046 816.635 171.046C822.712 171.046 827.758 169.67 831.771 166.918C835.784 164.109 838.823 160.067 840.887 154.792L856.367 158.834C853.156 167.491 848.14 174.113 841.317 178.7C834.494 183.287 826.267 185.58 816.635 185.58ZM940.053 183V136.474C940.053 132.059 939.652 127.817 938.849 123.746C938.104 119.675 936.756 116.035 934.807 112.824C932.915 109.556 930.335 106.976 927.067 105.084C923.856 103.192 919.786 102.246 914.855 102.246C911.014 102.246 907.516 102.905 904.363 104.224C901.267 105.485 898.601 107.435 896.365 110.072C894.129 112.709 892.38 116.035 891.119 120.048C889.915 124.004 889.313 128.677 889.313 134.066L879.251 130.97C879.251 121.969 880.856 114.257 884.067 107.836C887.335 101.357 891.893 96.398 897.741 92.958C903.646 89.4607 910.584 87.712 918.553 87.712C924.573 87.712 929.704 88.658 933.947 90.55C938.19 92.442 941.716 94.9647 944.525 98.118C947.334 101.214 949.542 104.711 951.147 108.61C952.752 112.451 953.87 116.379 954.501 120.392C955.189 124.348 955.533 128.103 955.533 131.658V183H940.053ZM873.833 183V59.16H887.593V127.53H889.313V183H873.833Z" fill="#5F6368"/>
</svg>
